<?xml version="1.0" standalone="no"?>
<svg xmlns="http://www.w3.org/2000/svg" viewBox="0 0 316.324 29" width="316.324" height="29"><g fill="#fea701" color="#fea701" transform="translate(0, 0) scale(0.5686275)"><svg width="44.0" height="51.0" x="0.0" y="0.0" viewBox="0 0 44 51"><path fill="currentColor" fill-rule="evenodd" d="M21.998 0L0 12.571v25.143l4.19 2.395V15.002L21.999 4.827 39.81 15.002v20.28L21.998 45.459l-9.427-5.388V19.865l9.427-5.386 9.43 5.386v10.553l-9.43 5.387-1.045-.597V24.73l5.268-3.012-4.223-2.413-5.236 2.994v15.34l5.236 2.993 13.62-7.784V17.435l-13.62-7.781-13.617 7.78v25.068l13.617 7.784L44 37.714V12.571z"></path></svg></g><line x1="37.02" y1="1" x2="37.02" y2="28" stroke="#fe4e01" stroke-linecap="round"></line><path fill="#fe4e01" fill-rule="nonzero" d="M15.82 2.59L8.16 13.44L16.01 13.44L16.01 17.40L0 17.40L0 15.70L7.66 4.85L0.58 4.85L0.58 0.89L15.82 0.89L15.82 2.59ZM24.74 4.44Q28.08 4.44 29.99 6.13Q31.90 7.82 31.90 11.06L31.90 11.06Q31.90 14.30 29.99 16.00Q28.08 17.69 24.74 17.69L24.74 17.69Q21.41 17.69 19.51 16.01Q17.62 14.33 17.62 11.06L17.62 11.06Q17.62 7.80 19.51 6.12Q21.41 4.44 24.74 4.44L24.74 4.44ZM24.74 7.68Q22.39 7.68 22.39 10.39L22.39 10.39L22.39 11.76Q22.39 14.45 24.74 14.45L24.74 14.45Q27.12 14.45 27.12 11.76L27.12 11.76L27.12 10.39Q27.12 7.68 24.74 7.68L24.74 7.68ZM40.75 4.44Q44.09 4.44 46.00 6.13Q47.90 7.82 47.90 11.06L47.90 11.06Q47.90 14.30 46.00 16.00Q44.09 17.69 40.75 17.69L40.75 17.69Q37.42 17.69 35.52 16.01Q33.62 14.33 33.62 11.06L33.62 11.06Q33.62 7.80 35.52 6.12Q37.42 4.44 40.75 4.44L40.75 4.44ZM40.75 7.68Q38.40 7.68 38.40 10.39L38.40 10.39L38.40 11.76Q38.40 14.45 40.75 14.45L40.75 14.45Q43.13 14.45 43.13 11.76L43.13 11.76L43.13 10.39Q43.13 7.68 40.75 7.68L40.75 7.68ZM57.91 4.42Q58.46 4.42 58.90 4.55Q59.33 4.68 59.33 4.70L59.33 4.70L59.33 8.71L57.79 8.71Q56.30 8.71 55.64 9.48Q54.98 10.25 54.98 11.76L54.98 11.76L54.98 17.40L50.21 17.40L50.21 4.73L54.12 4.73L54.43 6.65Q54.86 5.54 55.80 4.98Q56.74 4.42 57.91 4.42L57.91 4.42ZM66.60 17.40L61.82 17.40L61.82 0L66.60 0L66.60 17.40ZM94.42 10.75Q94.42 14.14 92.28 15.91Q90.14 17.69 86.21 17.69L86.21 17.69Q82.27 17.69 80.12 15.91Q77.98 14.14 77.98 10.75L77.98 10.75L77.98 0.89L83.28 0.89L83.28 10.68Q83.28 12.07 84.02 12.90Q84.77 13.73 86.18 13.73L86.18 13.73Q87.60 13.73 88.36 12.89Q89.11 12.05 89.11 10.68L89.11 10.68L89.11 0.89L94.42 0.89L94.42 10.75ZM113.64 5.95Q113.64 7.46 112.82 8.69Q112.01 9.91 110.45 10.49L110.45 10.49L114.12 17.40L108.17 17.40L105.24 11.38L103.27 11.38L103.27 17.40L97.97 17.40L97.97 0.89L108.07 0.89Q109.85 0.89 111.11 1.57Q112.37 2.26 113.00 3.42Q113.64 4.58 113.64 5.95L113.64 5.95ZM108.24 6.17Q108.24 5.52 107.81 5.09Q107.38 4.66 106.75 4.66L106.75 4.66L103.27 4.66L103.27 7.70L106.75 7.70Q107.38 7.70 107.81 7.26Q108.24 6.82 108.24 6.17L108.24 6.17ZM116.64 17.40L116.64 0.89L121.94 0.89L121.94 13.18L130.42 13.18L130.42 17.40L116.64 17.40ZM147.58 0.60Q150.74 0.60 152.78 1.88Q154.82 3.17 154.87 5.69L154.87 5.69L154.87 5.98L149.90 5.98L149.90 5.88Q149.90 5.16 149.38 4.68Q148.85 4.20 147.77 4.20L147.77 4.20Q146.71 4.20 146.15 4.51Q145.58 4.82 145.58 5.28L145.58 5.28Q145.58 5.93 146.35 6.24Q147.12 6.55 148.82 6.89L148.82 6.89Q150.82 7.30 152.10 7.74Q153.38 8.18 154.34 9.19Q155.30 10.20 155.33 11.93L155.33 11.93Q155.33 14.86 153.35 16.27Q151.37 17.69 148.06 17.69L148.06 17.69Q144.19 17.69 142.04 16.39Q139.90 15.10 139.90 11.81L139.90 11.81L144.91 11.81Q144.91 13.06 145.56 13.48Q146.21 13.90 147.58 13.90L147.58 13.90Q148.58 13.90 149.24 13.68Q149.90 13.46 149.90 12.79L149.90 12.79Q149.90 12.19 149.17 11.89Q148.44 11.59 146.78 11.26L146.78 11.26Q144.77 10.82 143.45 10.36Q142.13 9.89 141.14 8.81Q140.16 7.73 140.16 5.88L140.16 5.88Q140.16 3.17 142.26 1.88Q144.36 0.60 147.58 0.60L147.58 0.60ZM162.41 6.05Q163.18 5.28 164.21 4.86Q165.24 4.44 166.37 4.44L166.37 4.44Q168.58 4.44 169.68 5.66Q170.78 6.89 170.78 9.19L170.78 9.19L170.78 17.40L166.01 17.40L166.01 9.77Q166.01 8.95 165.59 8.46Q165.17 7.97 164.40 7.97L164.40 7.97Q163.51 7.97 162.96 8.54Q162.41 9.12 162.41 9.96L162.41 9.96L162.41 17.40L157.63 17.40L157.63 0L162.41 0L162.41 6.05ZM180.19 4.44Q183.53 4.44 185.44 6.13Q187.34 7.82 187.34 11.06L187.34 11.06Q187.34 14.30 185.44 16.00Q183.53 17.69 180.19 17.69L180.19 17.69Q176.86 17.69 174.96 16.01Q173.06 14.33 173.06 11.06L173.06 11.06Q173.06 7.80 174.96 6.12Q176.86 4.44 180.19 4.44L180.19 4.44ZM180.19 7.68Q177.84 7.68 177.84 10.39L177.84 10.39L177.84 11.76Q177.84 14.45 180.19 14.45L180.19 14.45Q182.57 14.45 182.57 11.76L182.57 11.76L182.57 10.39Q182.57 7.68 180.19 7.68L180.19 7.68ZM197.35 4.42Q197.90 4.42 198.34 4.55Q198.77 4.68 198.77 4.70L198.77 4.70L198.77 8.71L197.23 8.71Q195.74 8.71 195.08 9.48Q194.42 10.25 194.42 11.76L194.42 11.76L194.42 17.40L189.65 17.40L189.65 4.73L193.56 4.73L193.87 6.65Q194.30 5.54 195.24 4.98Q196.18 4.42 197.35 4.42L197.35 4.42ZM207.26 4.73L209.95 4.73L209.95 7.97L207.26 7.97L207.26 12.79Q207.26 13.66 207.55 14.05Q207.84 14.45 208.61 14.45L208.61 14.45L209.95 14.45L209.95 17.26Q209.38 17.45 208.46 17.57Q207.55 17.69 206.88 17.69L206.88 17.69Q204.77 17.69 203.63 16.92Q202.49 16.15 202.49 14.30L202.49 14.30L202.49 7.97L200.71 7.97L200.71 4.73L202.68 4.73L203.71 0.89L207.26 0.89L207.26 4.73ZM218.71 4.44Q222.19 4.44 224.03 6.07Q225.86 7.70 225.86 11.06L225.86 11.06L225.86 11.88L216.36 11.88Q216.36 13.25 216.97 13.94Q217.58 14.64 218.90 14.64L218.90 14.64Q220.10 14.64 220.67 14.14Q221.23 13.63 221.23 12.79L221.23 12.79L225.86 12.79Q225.86 15.10 224.11 16.39Q222.36 17.69 219.00 17.69L219.00 17.69Q215.47 17.69 213.53 16.04Q211.58 14.40 211.58 11.06L211.58 11.06Q211.58 7.80 213.48 6.12Q215.38 4.44 218.71 4.44L218.71 4.44ZM218.90 7.49Q216.65 7.49 216.38 9.62L216.38 9.62L221.04 9.62Q221.04 8.64 220.48 8.06Q219.91 7.49 218.90 7.49L218.90 7.49ZM236.90 4.44Q239.11 4.44 240.22 5.66Q241.32 6.89 241.32 9.19L241.32 9.19L241.32 17.40L236.54 17.40L236.54 9.77Q236.54 8.95 236.12 8.46Q235.70 7.97 234.94 7.97L234.94 7.97Q234.05 7.97 233.50 8.54Q232.94 9.12 232.94 9.96L232.94 9.96L232.94 17.40L228.17 17.40L228.17 4.73L232.08 4.73L232.39 6.65Q233.14 5.64 234.35 5.04Q235.56 4.44 236.90 4.44L236.90 4.44ZM250.73 4.44Q254.21 4.44 256.04 6.07Q257.88 7.70 257.88 11.06L257.88 11.06L257.88 11.88L248.38 11.88Q248.38 13.25 248.99 13.94Q249.60 14.64 250.92 14.64L250.92 14.64Q252.12 14.64 252.68 14.14Q253.25 13.63 253.25 12.79L253.25 12.79L257.88 12.79Q257.88 15.10 256.13 16.39Q254.38 17.69 251.02 17.69L251.02 17.69Q247.49 17.69 245.54 16.04Q243.60 14.40 243.60 11.06L243.60 11.06Q243.60 7.80 245.50 6.12Q247.39 4.44 250.73 4.44L250.73 4.44ZM250.92 7.49Q248.66 7.49 248.40 9.62L248.40 9.62L253.06 9.62Q253.06 8.64 252.49 8.06Q251.93 7.49 250.92 7.49L250.92 7.49ZM267.89 4.42Q268.44 4.42 268.87 4.55Q269.30 4.68 269.30 4.70L269.30 4.70L269.30 8.71L267.77 8.71Q266.28 8.71 265.62 9.48Q264.96 10.25 264.96 11.76L264.96 11.76L264.96 17.40L260.18 17.40L260.18 4.73L264.10 4.73L264.41 6.65Q264.84 5.54 265.78 4.98Q266.71 4.42 267.89 4.42L267.89 4.42Z" transform="translate(47.02, 5.8)"></path></svg>